<?xml version="1.0" encoding="utf-8"?>
<!-- Generator: Adobe Illustrator 27.5.0, SVG Export Plug-In . SVG Version: 6.00 Build 0)  -->
<svg version="1.1" xmlns="http://www.w3.org/2000/svg" xmlns:xlink="http://www.w3.org/1999/xlink" x="0px" y="0px"
	 viewBox="0 0 750 500" style="enable-background:new 0 0 750 500;" xml:space="preserve">
<g id="BACKGROUND">
	<g>
		<g>
			<rect style="fill:#27187e;" width="750" height="500"/>
		</g>
	</g>
</g>
<g id="OBJECTS">
	<g>
		<defs>
			<rect id="SVGID_1_" width="750" height="500"/>
		</defs>
		<clipPath id="SVGID_00000041282596442874184900000001797169420369134466_">
			<use xlink:href="#SVGID_1_"  style="overflow:visible;"/>
		</clipPath>
		<g style="clip-path:url(#SVGID_00000041282596442874184900000001797169420369134466_);">
			<g>
				<path style="fill:#ff8600;" d="M646.095,443.379c42.069-5.491,99.009-24.418,152.72-79.591
					c-3.89-4.895-8.276-9.495-13.156-13.722c-16.735,17.558-34.786,32.209-54.009,43.772c-9.761,5.873-19.834,10.963-30.166,15.253
					c-18.16,7.54-37.139,12.614-56.733,15.153c-10.18,1.318-19.808,1.862-28.738,1.892c-0.082,6.47,0.445,12.931,1.574,19.293
					C626.553,445.3,636.104,444.683,646.095,443.379z"/>
				<path style="fill:#ff8600;" d="M654.104,462.671c42.771-5.583,100.909-25.055,155.401-82.382
					c-2.221-4.285-4.761-8.436-7.608-12.416c-18.041,18.512-37.422,34.039-57.997,46.416c-10.942,6.582-22.231,12.287-33.813,17.096
					c-20.354,8.45-41.625,14.139-63.586,16.983c-9.754,1.263-19.098,1.883-27.906,2.041c1.113,4.866,2.583,9.659,4.401,14.336
					C632.709,464.706,643.142,464.102,654.104,462.671z"/>
				<path style="fill:#ff8600;" d="M662.114,481.963c42.691-5.571,100.695-24.983,155.1-82.065
					c-1.401-5.027-3.188-9.959-5.354-14.747c-18.593,19.404-38.631,35.605-59.95,48.432c-10.94,6.581-22.229,12.287-33.812,17.096
					c-20.354,8.45-41.625,14.137-63.587,16.982c-10.317,1.337-20.177,1.953-29.425,2.064c2.225,4.935,4.853,9.718,7.878,14.296
					C642.116,483.912,651.884,483.298,662.114,481.963z"/>
				<path style="fill:#ff8600;" d="M781.759,346.85c-4.736-3.715-9.698-6.941-14.823-9.698
					c-14.387,14.538-29.792,26.799-46.123,36.623c-8.976,5.401-18.235,10.08-27.735,14.024
					c-16.697,6.933-34.149,11.599-52.165,13.933c-7.724,1.001-15.103,1.516-22.064,1.683c-1.406,5.835-2.285,11.754-2.651,17.688
					c8.776-0.02,18.213-0.549,28.147-1.846C682.173,414.314,733.515,397.158,781.759,346.85z"/>
				<path style="fill:#ff8600;" d="M741.135,503.553c-16.697,6.932-34.148,11.598-52.166,13.933
					c-5.786,0.749-11.379,1.224-16.75,1.487c8.029,4.072,16.436,7,25.001,8.811c1.649-0.169,3.31-0.352,4.995-0.572
					c30.337-3.973,71.623-17.846,110.271-58.754c2.751-6.3,4.824-12.796,6.237-19.386c-15.441,16.235-32.102,29.777-49.853,40.456
					C759.896,494.928,750.635,499.607,741.135,503.553z"/>
				<path style="fill:#ff8600;" d="M772.023,507.918c-7.796,4.691-15.838,8.756-24.092,12.182
					c-10.387,4.313-21.115,7.597-32.115,9.869c31.275,0.794,62.517-12.685,83.316-39.187c1.818-2.317,3.515-4.69,5.101-7.107
					C794.029,493.037,783.281,501.146,772.023,507.918z"/>
				<path style="fill:#ff8600;" d="M676.382,496.425c39.571-5.17,93.928-23.704,144.058-79.569
					c-0.392-3.747-0.984-7.473-1.784-11.157c-18.25,18.847-37.881,34.628-58.736,47.175c-10.941,6.583-22.229,12.288-33.812,17.097
					c-20.353,8.45-41.625,14.138-63.588,16.982c-9.08,1.177-17.807,1.796-26.075,2.004c2.417,3.223,5.044,6.327,7.878,9.291
					C654.184,498.397,664.957,497.917,676.382,496.425z"/>
				<path style="fill:#ff8600;" d="M820.244,440.029c0.66-5.401,0.883-10.834,0.684-16.246
					c-17.636,19.096-36.772,34.912-57.24,47.226c-9.762,5.872-19.832,10.963-30.166,15.253
					c-18.16,7.539-37.139,12.613-56.733,15.152c-9.628,1.247-18.766,1.804-27.286,1.885c1.833,1.666,3.736,3.28,5.716,4.834
					c2.785,2.186,5.648,4.204,8.576,6.058c7.752-0.059,16.056-0.556,24.769-1.694C724.741,507.766,774.384,490.861,820.244,440.029z
					"/>
				<path style="fill:#ff8600;" d="M735.806,326.453c-7.306-1.245-14.698-1.686-22.045-1.344c-4.519,3.282-9.125,6.353-13.824,9.179
					c-7.795,4.69-15.839,8.755-24.091,12.181c-9.992,4.149-20.303,7.341-30.864,9.602c-2.484,2.563-4.861,5.277-7.114,8.147
					c-2.391,3.047-4.576,6.19-6.569,9.408c2.245-0.204,4.523-0.449,6.84-0.752C665.197,369.331,700.967,357.906,735.806,326.453z"/>
				<path style="fill:#ff8600;" d="M652.427,349.114c15.739-4.262,33.099-11.39,50.805-22.966
					C684.843,328.915,667.175,336.656,652.427,349.114z"/>
				<path style="fill:#ff8600;" d="M762.203,334.763c-6.561-3.101-13.355-5.446-20.266-7.064
					c-10.731,10.063-22.078,18.715-33.99,25.882c-7.797,4.69-15.839,8.755-24.092,12.182c-14.503,6.021-29.661,10.073-45.312,12.102
					c-3.519,0.455-6.951,0.788-10.298,1.03c-3.389,6.272-6.066,12.794-8.041,19.458c6.449-0.189,13.237-0.687,20.3-1.609
					C674.072,392.353,719.229,377.484,762.203,334.763z"/>
			</g>
		</g>		
		<g style="clip-path:url(#SVGID_00000041282596442874184900000001797169420369134466_);">
		</g>
	</g>
	<g>
		<path style="fill:#aeb8fe;" d="M560,399.25c-25.405,0-46,20.595-46,46s20.595,46,46,46c25.405,0,46-20.595,46-46
			S585.405,399.25,560,399.25z M560,463.25c-9.941,0-18-8.059-18-18s8.059-18,18-18s18,8.059,18,18S569.941,463.25,560,463.25z"/>
	</g>
	<g>		
		<g>
			<rect x="536" y="179.334" style="fill:#ff8600;" width="39.333" height="39.333"/>
			<rect x="575.457" y="218.668" style="fill:#aeb8fe;" width="25.001" height="25"/>
		</g>
	</g>
</g>
</svg>
