<?xml version="1.0" encoding="utf-8"?>
<!-- Generator: Adobe Illustrator 27.5.0, SVG Export Plug-In . SVG Version: 6.00 Build 0)  -->
<svg version="1.1" xmlns="http://www.w3.org/2000/svg" xmlns:xlink="http://www.w3.org/1999/xlink" x="0px" y="0px"
	 viewBox="0 0 750 500" style="enable-background:new 0 0 750 500;" xml:space="preserve">
<g id="BACKGROUND">
	<g>
		<g>
			<rect style="fill:#f1f2f6;" width="750" height="500"/>
		</g>
	</g>
</g>
<g id="OBJECTS">
	<g>
		<defs>
			<rect id="SVGID_1_" width="750" height="500"/>
		</defs>
		<clipPath id="SVGID_00000041282596442874184900000001797169420369134466_">
			<use xlink:href="#SVGID_1_"  style="overflow:visible;"/>
		</clipPath>
		<g style="clip-path:url(#SVGID_00000041282596442874184900000001797169420369134466_);">
			<g>
				<path style="fill:#fff;" d="M14.307,119.346c30.293,29.704,80.335,62.811,156.898,70.999
					c1.449-6.082,2.36-12.372,2.671-18.821c-24.143-2.325-46.814-7.479-67.778-15.462c-10.646-4.053-20.869-8.833-30.623-14.314
					c-17.143-9.631-32.852-21.428-46.946-35.275C21.206,99.28,14.834,92.044,9.296,85.035c-5.139,3.93-9.896,8.334-14.204,13.15
					C0.73,105.158,7.112,112.291,14.307,119.346z"/>
				<path style="fill:#fff;" d="M4.075,137.557c30.797,30.199,82.01,63.913,160.749,71.386c2.001-4.393,3.698-8.952,5.07-13.65
					c-25.701-2.763-49.88-8.423-72.32-16.967c-11.933-4.544-23.39-9.901-34.324-16.044c-19.213-10.794-36.82-24.016-52.617-39.536
					c-7.016-6.893-13.272-13.861-18.833-20.692c-3.142,3.88-6.005,7.995-8.561,12.313C-10.734,121.982-3.819,129.816,4.075,137.557z
					"/>
				<path style="fill:#fff;" d="M-6.156,155.769c30.741,30.144,81.822,63.788,160.314,71.344
					c3.09-4.206,5.866-8.656,8.294-13.317c-26.743-2.645-51.859-8.407-75.11-17.259c-11.933-4.543-23.39-9.901-34.324-16.043
					c-19.213-10.794-36.82-24.016-52.617-39.536c-7.421-7.291-13.993-14.666-19.791-21.873c-2.508,4.798-4.649,9.818-6.382,15.024
					C-20.035,141.241-13.523,148.545-6.156,155.769z"/>
				<path style="fill:#fff;" d="M173.999,166.47c-0.001-6.018-0.526-11.915-1.523-17.648
					c-20.318-2.341-39.474-6.89-57.285-13.671c-9.79-3.727-19.187-8.122-28.156-13.161c-15.762-8.855-30.207-19.702-43.166-32.434
					c-5.556-5.458-10.517-10.944-14.945-16.317c-5.458,2.496-10.658,5.459-15.551,8.834c5.434,6.892,11.676,13.989,18.829,21.001
					C59.446,129.782,104.639,159.579,173.999,166.47z"/>
				<path style="fill:#fff;" d="M25.646,231.259c-15.762-8.855-30.206-19.702-43.165-32.434
					c-4.163-4.09-7.988-8.196-11.512-12.258c1.753,8.831,4.641,17.252,8.504,25.107c1.149,1.193,2.319,2.387,3.533,3.576
					c21.855,21.412,58.257,45.325,114.299,50.472c6.654-1.726,13.043-4.105,19.1-7.062c-22.304-2.124-43.244-6.869-62.603-14.24
					C44.013,240.693,34.616,236.298,25.646,231.259z"/>
				<path style="fill:#fff;" d="M41.283,258.254c-8.503-3.236-16.665-7.054-24.456-11.431
					c-9.806-5.509-19.013-11.92-27.591-19.171C7.919,252.745,37.811,269,71.5,269c2.945,0,5.859-0.131,8.741-0.375
					C66.575,266.378,53.561,262.929,41.283,258.254z"/>
				<path style="fill:#fff;" d="M-8.724,175.921c28.498,27.938,76.637,59.255,151.533,64.199
					c2.706-2.622,5.271-5.388,7.676-8.292c-26.094-2.72-50.628-8.419-73.374-17.08c-11.933-4.543-23.39-9.901-34.324-16.043
					c-19.213-10.794-36.82-24.016-52.617-39.536c-6.532-6.417-12.407-12.9-17.675-19.276c-1.043,3.892-1.863,7.874-2.445,11.935
					C-23.981,159.675-16.952,167.855-8.724,175.921z"/>
				<path style="fill:#fff;" d="M124.458,254.273c4.657-2.815,9.068-5.995,13.203-9.492c-25.91-2.083-50.167-7.373-72.489-15.872
					c-10.646-4.053-20.868-8.833-30.624-14.313c-17.142-9.631-32.852-21.428-46.946-35.275c-6.926-6.804-13.005-13.648-18.33-20.301
					c-0.178,2.471-0.273,4.964-0.273,7.48c0,3.54,0.18,7.039,0.53,10.487c4.831,6.062,10.349,12.287,16.625,18.438
					C12.21,220.964,56.158,249.58,124.458,254.273z"/>
				<path style="fill:#fff;" d="M161.674,117.729c-3.531-6.515-7.749-12.604-12.554-18.171
					c-5.372-1.529-10.631-3.257-15.755-5.208c-8.502-3.237-16.666-7.054-24.456-11.431c-9.433-5.3-18.309-11.441-26.608-18.353
					C78.751,64.194,75.148,64,71.5,64c-3.873,0-7.695,0.222-11.457,0.641c1.546,1.641,3.146,3.282,4.814,4.916
					C84.351,88.657,115.421,109.741,161.674,117.729z"/>
				<path style="fill:#fff;" d="M92.37,66.129c13.069,9.75,29.395,19.005,49.433,25.788
					C128.273,79.158,111.275,70.04,92.37,66.129z"/>
				<path style="fill:#fff;" d="M171.435,143.624c-1.613-7.075-3.961-13.869-6.954-20.303
					c-14.542-2.228-28.354-5.813-41.346-10.76c-8.503-3.237-16.666-7.055-24.457-11.431c-13.69-7.692-26.237-17.114-37.494-28.173
					c-2.532-2.488-4.912-4.982-7.17-7.466c-7.026,1.208-13.81,3.127-20.27,5.688c4.129,4.956,8.712,9.989,13.798,14.976
					C71.718,109.851,111.296,136.196,171.435,143.624z"/>
			</g>
		</g>		
		<g style="clip-path:url(#SVGID_00000041282596442874184900000001797169420369134466_);">
		</g>
	</g>
	<g>
		<path style="fill:#aeb7fe5c;" d="M173,66c-25.405,0-46,20.595-46,46s20.595,46,46,46s46-20.595,46-46S198.405,66,173,66z M173,130
			c-9.941,0-18-8.059-18-18s8.059-18,18-18s18,8.059,18,18S182.941,130,173,130z"/>		
	</g>
	<g>
		<g>
			<rect x="72" y="360.334" style="fill:#aeb7fe5c;" width="39.333" height="39.333"/>
			<rect x="111.457" y="399.668" style="fill:#ffffff;" width="25" height="25"/>
		</g>
	</g>
</g>
</svg>
