<?xml version="1.0" encoding="utf-8"?>
<!-- Generator: Adobe Illustrator 27.5.0, SVG Export Plug-In . SVG Version: 6.00 Build 0)  -->
<svg version="1.1" xmlns="http://www.w3.org/2000/svg" xmlns:xlink="http://www.w3.org/1999/xlink" x="0px" y="0px"
	 viewBox="0 0 752 423" style="enable-background:new 0 0 752 423;" xml:space="preserve">
<g id="BACKGROUND">
	<rect style="fill:#F1F2F6;" width="1752" height="1423"/>
</g>
<g id="OBJECTS">
	<g>
		<defs>
			<rect id="SVGID_1_" width="1752" height="1423"/>
		</defs>
		<clipPath id="SVGID_00000181051739865195244080000000951676174734680254_">
			<use xlink:href="#SVGID_1_"  style="overflow:visible;"/>
		</clipPath>
		<path style="clip-path:url(#SVGID_00000181051739865195244080000000951676174734680254_);fill:#FFFFFF;" d="M751,52.741H495.991
			c-26.863,0-48.717-21.855-48.717-48.718c0-26.863,21.854-48.718,48.717-48.718H751V52.741z"/>
		
			<ellipse transform="matrix(0.7071 -0.7071 0.7071 0.7071 -86.339 147.068)" style="clip-path:url(#SVGID_00000181051739865195244080000000951676174734680254_);fill:#758BFD;" cx="134.357" cy="177.754" rx="100.871" ry="100.871"/>
		
			<circle style="clip-path:url(#SVGID_00000181051739865195244080000000951676174734680254_);fill:#AEB8FE;" cx="243.051" cy="182.985" r="58.778"/>

		<path style="clip-path:url(#SVGID_00000181051739865195244080000000951676174734680254_);fill:#AEB8FE;" d="M810.197,373.194
			c0-74.316-60.245-134.562-134.562-134.562s-134.561,60.245-134.561,134.562c0,74.316,60.245,134.562,134.561,134.562
			S810.197,447.51,810.197,373.194z M601.109,373.194c0-41.159,33.366-74.526,74.526-74.526c41.159,0,74.526,33.367,74.526,74.526
			c0,41.16-33.366,74.526-74.526,74.526C634.475,447.72,601.109,414.353,601.109,373.194z"/>

		<path style="clip-path:url(#SVGID_00000181051739865195244080000000951676174734680254_);fill:#FFFFFF;" d="M149.687,516.35
			v-171.22c0-23.224-18.894-42.117-42.118-42.117c-23.224,0-42.118,18.894-42.118,42.117v171.22H149.687z"/>
	</g>
</g>
</svg>
